<svg xmlns="http://www.w3.org/2000/svg" fill="currentColor" aria-label="shield check" viewBox="0 0 139 167"><path d="M61.9 12.2a89 89 0 0 1-44.2 15.5C5 28.6 5.6 27 6.3 58.8c.5 26.4 1.3 32.5 5.7 45.7 6.7 20.2 25.5 39.7 49.3 51.1 3.9 1.9 7.7 3.4 8.5 3.4 2.6 0 16.5-7 24.7-12.5a85 85 0 0 0 35.6-50.8c1.8-7 2.2-12.2 2.6-36 .6-33.3 1.4-31.2-11.5-32.2a97 97 0 0 1-44.3-15A85 85 0 0 0 68.8 8c-.3 0-3.4 1.9-6.9 4.2M91.1 27c9.7 3.7 18.5 5.9 27.9 6.8l7.5.7.3 14.5c.3 17.2-1.2 38.1-3.4 46.5a96 96 0 0 1-15.7 30.6c-10.1 12.1-33 26.9-39.5 25.4a123 123 0 0 1-25.3-15 83 83 0 0 1-27.1-42c-1.8-7-2.2-11.4-2.6-34.3L12.8 34h5.9c12 0 31.1-6.6 45.7-15.7l4.8-3 7.1 4.3c4 2.5 10.6 5.7 14.8 7.4"/><path d="m80.3 79-20.8 21.9-8.6-8.5c-6.8-6.7-9.1-8.5-11-8.2-5.1.7-3.4 3.9 7.9 15.1 6 5.9 11.4 10.7 11.9 10.7s8.2-7.5 16.9-16.8L99 69.7c3.6-3.8 6.9-7.5 7.3-8.3 1.1-1.9-.9-4.4-3.3-4.4a191 191 0 0 0-22.7 22"/></svg>