<svg xmlns="http://www.w3.org/2000/svg" width="900" height="900" viewBox="0 0 448 448" role="img" aria-labelledby="title desc">
  <title id="title">까르띠에 러브 브레이슬릿 옐로우골드 주얼리</title>
  <desc id="desc">AI-generated editorial product image without visible brand logos.</desc>
  <defs>
    <linearGradient id="bg" x1="0" x2="1" y1="0" y2="1">
      <stop offset="0" stop-color="#f1f1f4"/>
      <stop offset=".58" stop-color="#ffffff"/>
      <stop offset="1" stop-color="#aeb8c4" stop-opacity=".6"/>
    </linearGradient>
    <radialGradient id="spot" cx=".5" cy=".38" r=".52">
      <stop offset="0" stop-color="#ffffff" stop-opacity=".96"/>
      <stop offset="1" stop-color="#ffffff" stop-opacity="0"/>
    </radialGradient>
    <filter id="shadow" x="-20%" y="-20%" width="140%" height="150%">
      <feDropShadow dx="0" dy="20" stdDeviation="18" flood-color="#252733" flood-opacity=".18"/>
    </filter>
  </defs>
  <rect width="448" height="448" rx="38" fill="url(#bg)"/>
  <circle cx="224" cy="186" r="174" fill="url(#spot)"/>
  <ellipse cx="224" cy="384" rx="118" ry="24" fill="#252733" opacity=".11"/>
  <g filter="url(#shadow)">
    
    <circle cx="224" cy="248" r="104" fill="none" stroke="#8d92a1" stroke-width="22"/>
    <circle cx="224" cy="248" r="72" fill="none" stroke="#252733" stroke-width="8" opacity=".7"/>
    <circle cx="224" cy="144" r="34" fill="#ffffff" stroke="#252733" stroke-width="8"/>
    <path d="M206 136 L224 106 L242 136 Z" fill="#fffdf8" stroke="#8d92a1" stroke-width="6" stroke-linejoin="round"/>
    <circle cx="144" cy="292" r="10" fill="#ffffff" opacity=".8"/>
    <circle cx="304" cy="292" r="10" fill="#ffffff" opacity=".8"/>
  </g>
  <path d="M52 72 C90 36 140 26 192 34" fill="none" stroke="#ffffff" stroke-width="10" opacity=".42" stroke-linecap="round"/>
  <path d="M360 366 C326 394 286 406 242 404" fill="none" stroke="#252733" stroke-width="7" opacity=".08" stroke-linecap="round"/>
</svg>
